<svg width="300" height="53" viewBox="0 0 300 53" fill="none" xmlns="http://www.w3.org/2000/svg">
<g clip-path="url(#clip0_119_95)">
<path d="M54.8024 23.103L39.1739 32.9858V51.4757L36.9291 52.8013L24.2711 45.822L27.1966 43.9734L36.1493 48.9059V34.893L21.3951 44.2302L0.145203 32.5846V29.9786L15.7693 20.0957V1.60141L18.0142 0.275879L39.1695 11.9351V29.4015L51.0114 21.9127L42.05 16.9803V13.5222L54.7981 20.497L54.8024 22.8767V23.103ZM34.6842 32.2419L17.3425 22.6882L3.93629 31.1689L18.0232 38.9235L21.2869 40.718L34.6886 32.2419H34.6842ZM36.1446 13.7251L18.7986 4.1668V20.0326L36.1403 29.5864V13.7251H36.1446ZM82.1562 26.755H86.3259V19.5727H84.1215V6.84494H79.6677V19.5727H71.3959V6.84494H66.9421V23.2022H82.1562V26.7595V26.755ZM90.0583 6.84494V23.2022H105.06V19.7892H94.5121V16.4934H102.572V13.1976H94.5121V10.258H104.966V6.84494H90.0583ZM109.108 6.84494V23.2022H113.562V16.6106H122.235V23.2022H126.689V6.84494H122.235V12.9857H113.562V6.84494H109.108ZM136.561 10.4698V23.1977H141.015V10.4698H147.51V6.84494H130.065V10.4698H136.561ZM150.941 6.84494V23.2022H155.395V18.1525H162.102C164.117 18.1525 165.632 17.6566 166.606 16.6602C167.579 15.6638 168.053 14.2661 168.053 12.4626C168.053 10.6592 167.579 9.33369 166.606 8.33729C165.636 7.34089 164.117 6.84494 162.102 6.84494H150.941ZM163.527 12.8189C163.527 13.7115 163.175 14.6899 161.467 14.6899H155.399V10.303H161.467C162.977 10.303 163.527 11.1371 163.527 12.1516V12.8143V12.8189ZM174.593 6.84494L167.53 23.2022H171.699L173.241 19.5772H181.585L183.127 23.2022H187.774L180.733 6.84494H174.593ZM174.616 16.3491L177.411 9.75749L180.206 16.3491H174.611H174.616ZM190.326 19.2887V23.1977H191.557C192.742 23.1977 193.716 23.0308 194.473 22.6747C195.208 22.341 195.798 21.7955 196.249 21.038C196.677 20.3031 196.961 19.3067 197.128 18.0759C197.295 16.8676 197.367 15.3752 197.367 13.6214V10.4698H204.147V23.1977H208.601V6.84494H193.22V13.6259C193.22 15.5916 193.076 17.0389 192.792 17.9406C192.485 18.8423 191.818 19.2932 190.776 19.2932H190.326V19.2887ZM212.545 6.84494V23.2022H223.684C225.699 23.2022 227.213 22.7062 228.187 21.7098C229.156 20.7134 229.634 19.3383 229.634 17.5844C229.634 15.8306 229.161 14.4059 228.187 13.414C227.213 12.4176 225.699 11.9216 223.684 11.9216H216.998V6.84943H212.545V6.84494ZM225.103 17.9136C225.103 18.4591 224.937 18.8874 224.608 19.194C224.251 19.5277 223.729 19.69 222.998 19.69H217.003V15.4248H222.998C223.733 15.4248 224.256 15.5916 224.608 15.8982C224.941 16.2319 225.103 16.6557 225.103 17.1786V17.9136ZM232.663 6.84494V23.2022H237.117V16.6106H245.79V23.2022H250.244V6.84494H245.79V12.9857H237.117V6.84494H232.663ZM254.396 6.84494V23.2022H265.534C267.549 23.2022 269.064 22.7062 270.038 21.7098C271.007 20.7134 271.485 19.3383 271.485 17.5844C271.485 15.8306 271.011 14.4059 270.038 13.414C269.064 12.4176 267.549 11.9216 265.534 11.9216H258.849V6.84943H254.396V6.84494ZM266.954 17.9136C266.954 18.4591 266.788 18.8874 266.458 19.194C266.102 19.5277 265.579 19.69 264.849 19.69H258.854V15.4248H264.849C265.584 15.4248 266.107 15.5916 266.458 15.8982C266.792 16.2319 266.954 16.6557 266.954 17.1786V17.9136ZM72.4327 47.7514H76.7916L86.4161 31.3943H82.0298L77.193 39.645L71.815 31.3943H66.9107L74.8713 43.5766L72.4327 47.7471V47.7514ZM89.089 31.3943V47.7514H93.5428V41.16H102.216V47.7514H106.67V31.3943H102.216V37.5352H93.5428V31.3943H89.089ZM124.52 36.8679V47.7471H128.974V31.3898H124.187L115.442 42.2689V31.3898H110.988V47.7471H115.775L124.52 36.8679ZM133.311 31.3943V47.7514H144.662C146.464 47.7514 147.812 47.3503 148.714 46.5205C149.593 45.6911 150.039 44.5054 150.039 42.9635C150.039 42.0167 149.801 41.2095 149.305 40.5243C148.809 39.8391 148.002 39.3609 146.888 39.0771C147.885 38.7435 148.57 38.2473 148.976 37.5621C149.354 36.8995 149.544 36.1644 149.544 35.3574C149.544 34.0544 149.093 33.058 148.218 32.3952C147.339 31.7325 146.063 31.3988 144.427 31.3988H133.311V31.3943ZM145.09 36.3269C145.09 36.8722 144.923 37.2736 144.594 37.5574C144.238 37.8415 143.764 37.9858 143.124 37.9858H137.719V34.3114H143.124C143.764 34.3114 144.238 34.4557 144.594 34.7127C144.927 34.9742 145.09 35.3754 145.09 35.8759V36.3269ZM145.586 43.0582C145.586 43.6487 145.396 44.0771 145.018 44.3838C144.639 44.6902 144.093 44.8344 143.408 44.8344H137.719V40.7586H143.408C144.12 40.7586 144.666 40.9028 145.045 41.1869C145.401 41.4937 145.59 41.8994 145.59 42.4451V43.0625L145.586 43.0582ZM153.596 31.3943V47.7514H168.598V44.3386H158.05V41.0427H166.11V37.7468H158.05V34.8073H168.503V31.3943H153.596ZM172.222 31.3943V47.7514H176.676V42.702H183.384C185.399 42.702 186.913 42.2058 187.887 41.2095C188.856 40.2133 189.334 38.8156 189.334 37.0121C189.334 35.2086 188.861 33.8831 187.887 32.8867C186.913 31.8903 185.399 31.3943 183.384 31.3943H172.222ZM184.808 37.3683C184.808 37.9363 184.641 38.3872 184.335 38.7209C184.001 39.0771 183.483 39.2439 182.748 39.2439H176.681V34.8569H182.748C183.483 34.8569 184.006 35.0237 184.335 35.3799C184.641 35.7361 184.808 36.1644 184.808 36.7054V37.3683ZM191.867 39.5955C191.867 41.1826 192.079 42.5351 192.53 43.6261C192.958 44.7397 193.571 45.619 194.401 46.2594C195.208 46.8994 196.2 47.3729 197.385 47.6567C198.571 47.9408 199.896 48.0851 201.388 48.0851C204.115 48.0851 206.27 47.6345 207.884 46.7326C209.471 45.8536 210.394 44.3386 210.656 42.2284H206.153C205.914 43.2024 205.396 43.8424 204.589 44.1492C203.781 44.4828 202.718 44.645 201.388 44.645C199.896 44.645 198.688 44.3612 197.764 43.8155C196.84 43.2699 196.389 42.1563 196.389 40.5196V38.6215C196.389 37.792 196.506 37.1068 196.767 36.5611C197.006 36.0155 197.336 35.6144 197.786 35.3033C198.237 34.9967 198.755 34.7803 199.373 34.6631C199.99 34.5458 200.653 34.4962 201.388 34.4962C202.763 34.4962 203.854 34.6631 204.66 34.9922C205.468 35.3258 205.963 36.0112 206.13 37.0526H210.633C210.422 34.8479 209.498 33.2834 207.906 32.3817C206.297 31.5025 204.115 31.0562 201.388 31.0562C199.896 31.0562 198.566 31.2005 197.385 31.4845C196.2 31.7911 195.203 32.269 194.401 32.9317C193.571 33.6171 192.954 34.4962 192.53 35.5873C192.079 36.6785 191.867 38.0041 191.867 39.5955ZM227.488 36.8679V47.7471H231.942V31.3898H227.155L218.41 42.2689V31.3898H213.956V47.7471H218.743L227.488 36.8679ZM241.472 35.0192V47.7471H245.925V35.0192H252.421V31.3943H234.976V35.0192H241.472ZM255.428 31.3943V47.7514H270.43V44.3386H259.881V41.0427H267.941V37.7468H259.881V34.8073H270.335V31.3943H255.428ZM279.851 35.0192V47.7471H284.305V35.0192H290.801V31.3943H273.355V35.0192H279.851ZM273.202 6.84042V23.1977H277.656V6.84494H273.202V6.84042ZM292.793 1.50673C292.748 2.75111 292.045 3.26058 290.85 3.26058C289.656 3.26058 288.953 2.75111 288.907 1.50673H285.63C285.711 3.80163 287.131 5.65467 290.85 5.65467C294.569 5.65467 295.989 3.80163 296.07 1.50673H292.793ZM294.997 6.84042L286.252 17.7197V6.84494H281.798V23.2022H286.586L295.331 12.3229V23.2022H299.785V6.84494H294.997V6.84042Z" fill="#06090F"/>
</g>
<defs>
<clipPath id="clip0_119_95">
<rect width="300" height="53" fill="white"/>
</clipPath>
</defs>
</svg>
